<svg width="63" height="55" viewBox="0 0 63 55" fill="none" xmlns="http://www.w3.org/2000/svg">
<path d="M17.0509 30.3096C19.4379 30.3096 21.6583 29.6198 23.4709 28.315C26.1662 26.3759 28.5158 23.1041 29.9169 19.3381C31.3854 15.3913 31.6708 11.3813 30.7209 8.04666C30.7184 8.0379 30.7158 8.0289 30.7131 8.02014C29.2356 3.07325 24.0943 0 17.2952 0C14.7254 0 12.0366 0.463543 9.51981 1.3405C5.10071 2.87907 1.8418 6.02411 0.578916 9.96897C-0.682261 13.9075 0.138733 18.3475 2.83117 22.1505C2.83726 22.1593 2.84358 22.168 2.84991 22.1766C6.5125 27.1928 11.9538 30.3091 17.0499 30.3096C17.0504 30.3096 17.0506 30.3096 17.0509 30.3096ZM21.3695 11.7246C22.9372 11.6684 24.2364 12.8746 24.2982 14.4299C24.3597 15.9831 23.1465 17.2971 21.5933 17.3586C21.5556 17.3601 21.5181 17.3608 21.4809 17.3608C19.9616 17.3608 18.7245 16.1717 18.6641 14.6535C18.6043 13.0987 19.818 11.7861 21.3695 11.7246Z" fill="white"/>
<path d="M57.1148 17.3608C57.152 17.3608 57.1895 17.3601 57.227 17.3586C57.9793 17.3287 58.675 17.0078 59.186 16.4547C59.6972 15.9013 59.9622 15.1823 59.9323 14.4297C59.8705 12.8741 58.5706 11.6628 57.0031 11.7243C56.2502 11.7543 55.5543 12.0755 55.0433 12.6293C54.5328 13.1824 54.2681 13.9012 54.298 14.6533C54.3586 16.1717 55.5957 17.3608 57.1148 17.3608Z" fill="black"/>
<path d="M21.4995 18C21.5458 18 21.5923 17.9991 21.6388 17.9973C22.5728 17.9601 23.4364 17.5617 24.0707 16.8751C24.7054 16.1882 25.0343 15.2955 24.9972 14.3612C24.9204 12.4301 23.3068 10.9264 21.3609 11.0028C20.4263 11.0399 19.5624 11.4387 18.9281 12.1262C18.2943 12.8128 17.9657 13.7051 18.0028 14.6388C18.0781 16.5238 19.6138 18 21.4995 18Z" fill="black"/>
<path d="M60.3382 47.1047C46.4759 47.1047 42.7562 39.406 41.7955 36.0768C45.6961 34.5942 48.3238 29.8911 48.3238 26.5351C48.3238 22.2573 44.275 18.7773 39.2982 18.7773C34.3214 18.7773 30.2726 22.2573 30.2726 26.5351C30.2726 29.8911 32.9004 34.5942 36.8009 36.0768C35.8405 39.4062 32.1207 47.1047 18.2582 47.1047C17.0487 47.1047 16.0683 48.0851 16.0683 49.2947C16.0683 50.5042 17.0487 51.4846 18.2582 51.4846C29.2976 51.4846 35.0217 47.0843 37.8794 43.3929C38.4324 42.6785 38.9001 41.9629 39.2982 41.267C39.6961 41.9629 40.1637 42.6785 40.7168 43.3929C45.8944 50.0809 54.2447 51.4846 60.3379 51.4846C61.5475 51.4846 62.5279 50.5042 62.5279 49.2947C62.5279 48.0851 61.5475 47.1047 60.3382 47.1047Z" fill="black"/>
<path d="M41.1303 50.6201H37.466C36.2564 50.6201 35.276 51.6005 35.276 52.8101C35.276 54.0196 36.2564 55 37.466 55H41.1303C42.3399 55 43.3202 54.0196 43.3202 52.8101C43.3202 51.6005 42.3399 50.6201 41.1303 50.6201Z" fill="black"/>
</svg>
